HIERARCHY
ROOT Hips
{
	OFFSET 0.000000 0.000000 0.000000
	CHANNELS 6 Xposition Yposition Zposition Zrotation Yrotation Xrotation 
	JOINT LHipJoint
	{
		OFFSET 0.000000 0.000000 0.000000
		CHANNELS 3 Zrotation Yrotation Xrotation
		JOINT LeftUpLeg
		{
			OFFSET 1.363060 -1.794630 0.839290
			CHANNELS 3 Zrotation Yrotation Xrotation
			JOINT LeftLeg
			{
				OFFSET 2.448110 -6.726130 0.000000
				CHANNELS 3 Zrotation Yrotation Xrotation
				JOINT LeftFoot
				{
					OFFSET 2.562200 -7.039590 0.000000
					CHANNELS 3 Zrotation Yrotation Xrotation
					JOINT LeftToeBase
					{
						OFFSET 0.157640 -0.433110 2.322550
						CHANNELS 3 Zrotation Yrotation Xrotation
						End Site
						{
							OFFSET 0.000000 0.000000 0.000000
						}
					}
				}
			}
		}
	}
	JOINT RHipJoint
	{
		OFFSET 0.000000 0.000000 0.000000
		CHANNELS 3 Zrotation Yrotation Xrotation
		JOINT RightUpLeg
		{
			OFFSET -1.305520 -1.794630 0.839290
			CHANNELS 3 Zrotation Yrotation Xrotation
			JOINT RightLeg
			{
				OFFSET -2.542530 -6.985550 0.000000
				CHANNELS 3 Zrotation Yrotation Xrotation
				JOINT RightFoot
				{
					OFFSET -2.568260 -7.056230 0.000000
					CHANNELS 3 Zrotation Yrotation Xrotation
					JOINT RightToeBase
					{
						OFFSET -0.164730 -0.452590 2.363150
						CHANNELS 3 Zrotation Yrotation Xrotation
						End Site
						{
							OFFSET 0.000000 0.000000 0.000000
						}
					}
				}
			}
		}
	}
	JOINT LowerBack
	{
		OFFSET 0.000000 0.000000 0.000000
		CHANNELS 3 Zrotation Yrotation Xrotation
		JOINT Spine
		{
			OFFSET 0.028270 2.035590 -0.193380
			CHANNELS 3 Zrotation Yrotation Xrotation
			JOINT Spine1
			{
				OFFSET 0.056720 2.048850 -0.042750
				CHANNELS 3 Zrotation Yrotation Xrotation
				JOINT Neck
				{
					OFFSET 0.000000 0.000000 0.000000
					CHANNELS 3 Zrotation Yrotation Xrotation
					JOINT Neck1
					{
						OFFSET -0.054170 1.746240 0.172020
						CHANNELS 3 Zrotation Yrotation Xrotation
						JOINT Head
						{
							OFFSET 0.104070 1.761360 -0.123970
							CHANNELS 3 Zrotation Yrotation Xrotation
							End Site
							{
								OFFSET 0.000000 0.000000 0.000000
							}
						}
					}
				}
				JOINT LeftShoulder
				{
					OFFSET 0.000000 0.000000 0.000000
					CHANNELS 3 Zrotation Yrotation Xrotation
					JOINT LeftArm
					{
						OFFSET 3.362410 1.200890 -0.311210
						CHANNELS 3 Zrotation Yrotation Xrotation
						JOINT LeftForeArm
						{
							OFFSET 4.983000 -0.000000 -0.000000
							CHANNELS 3 Zrotation Yrotation Xrotation
							JOINT LeftHand
							{
								OFFSET 3.483560 -0.000000 -0.000000
								CHANNELS 3 Zrotation Yrotation Xrotation
								JOINT LeftFingerBase
								{
									OFFSET 0.000000 0.000000 0.000000
									CHANNELS 3 Zrotation Yrotation Xrotation
									JOINT LeftHandIndex1
									{
										OFFSET 0.715260 -0.000000 -0.000000
										CHANNELS 3 Zrotation Yrotation Xrotation
										End Site
										{
											OFFSET 0.000000 0.000000 0.000000
										}
									}
								}
								JOINT LThumb
								{
									OFFSET 0.000000 0.000000 0.000000
									CHANNELS 3 Zrotation Yrotation Xrotation
									End Site
									{
										OFFSET 0.000000 0.000000 0.000000
									}
								}
							}
						}
					}
				}
				JOINT RightShoulder
				{
					OFFSET 0.000000 0.000000 0.000000
					CHANNELS 3 Zrotation Yrotation Xrotation
					JOINT RightArm
					{
						OFFSET -3.136600 1.374050 -0.404650
						CHANNELS 3 Zrotation Yrotation Xrotation
						JOINT RightForeArm
						{
							OFFSET -5.241900 -0.000000 -0.000000
							CHANNELS 3 Zrotation Yrotation Xrotation
							JOINT RightHand
							{
								OFFSET -3.444170 -0.000000 -0.000000
								CHANNELS 3 Zrotation Yrotation Xrotation
								JOINT RightFingerBase
								{
									OFFSET 0.000000 0.000000 0.000000
									CHANNELS 3 Zrotation Yrotation Xrotation
									JOINT RightHandIndex1
									{
										OFFSET -0.622530 -0.000000 -0.000000
										CHANNELS 3 Zrotation Yrotation Xrotation
										End Site
										{
											OFFSET 0.000000 0.000000 0.000000
										}
									}
								}
								JOINT RThumb
								{
									OFFSET 0.000000 0.000000 0.000000
									CHANNELS 3 Zrotation Yrotation Xrotation
									End Site
									{
										OFFSET 0.000000 0.000000 0.000000
									}
								}
							}
						}
					}
				}
			}
		}
	}
}
MOTION
Frames: 5
Frame Time: 0.008333
-7.318547 19.742936 3.839803 8.905287 -86.288891 -8.054189 -4.997115 5.118961 4.136286 -13.290106 -12.332020 -10.384192 1.333331 7.567801 22.480877 -4.670299 24.207964 19.421560 0.837200 5.836700 16.311400 -1.652640 -5.820150 2.549244 21.652465 20.877007 1.012820 -2.869461 -7.336734 24.899545 6.987541 -27.505615 13.399889 -0.052800 -1.482400 4.077100 2.216136 1.750793 5.734632 -4.777489 1.751661 -2.659237 -3.016869 1.281945 -9.670048 -8.458146 -2.233800 -10.474482 7.932368 -2.360000 -25.673004 3.701900 -1.686100 -4.918700 1.019943 -2.906905 0.318177 71.827137 -29.390935 -75.940578 14.850012 -25.805262 -3.862309 -0.748395 -1.442649 4.210862 21.596885 17.819804 7.714000 -7.125000 0.000000 0.000000 -6.069100 50.646100 -0.847100 -2.382850 3.110764 1.675560 -49.811745 13.133588 -56.178061 -16.076966 26.019724 -5.087663 1.449010 2.178857 -13.284700 -25.471969 -3.953628 3.020300 7.125000 0.000000 0.000000 -0.585600 -36.551900 -0.121700 
-7.285122 19.887613 3.840678 16.714988 -86.286136 -14.875718 -5.012517 5.090131 3.980626 -13.571883 -11.825009 -11.369647 1.336601 7.511227 21.967884 -4.390522 25.162021 22.181681 0.820700 5.780200 16.148000 -1.488164 -5.718705 2.480106 20.432108 20.930786 -0.641132 -2.960806 -7.468960 25.099463 7.574402 -29.296922 12.738651 -0.324100 -3.659300 10.120000 1.691957 1.871852 5.630563 -5.128416 1.746246 -3.409112 -2.782522 1.337247 -9.720642 -8.454842 -2.311921 -10.841034 8.081768 -2.452868 -25.815372 3.739700 -1.750000 -4.920100 1.191915 -2.866195 0.363174 73.797893 -28.763015 -78.314009 13.361529 -23.842844 -3.180393 -0.755502 -1.446562 4.693251 20.800888 17.936686 7.455700 -7.125000 0.000000 0.000000 -6.894300 50.640900 -0.962300 -2.506990 3.071622 1.697181 -50.248694 12.494045 -55.741610 -15.676550 25.559552 -4.883929 1.391110 2.177318 -14.097358 -24.475652 -3.559430 2.684900 7.125000 0.000000 0.000000 0.264500 -36.031600 0.058300 
-7.241885 20.021310 3.840095 25.522235 -86.085721 -22.775885 -5.044198 5.065125 3.817385 -13.991186 -11.712531 -12.062718 1.314788 7.409993 21.368157 -3.842040 25.673480 25.414999 0.657200 5.185100 14.437400 -1.319582 -5.635055 2.441171 19.076683 20.933881 -2.373800 -3.101464 -7.694601 25.571690 7.833926 -30.352850 12.862752 -0.700400 -5.349500 14.908100 1.038077 1.940768 5.641999 -5.492845 1.658665 -4.055685 -2.480230 1.357295 -9.824272 -8.722174 -2.400179 -11.027444 8.419135 -2.529246 -26.142186 3.878400 -1.809500 -4.987600 1.368763 -2.847752 0.402300 75.703294 -28.166237 -81.421828 11.951582 -21.895955 -2.577857 -0.776965 -1.491170 5.876164 20.053384 19.349242 7.679900 -7.125000 0.000000 0.000000 -8.111100 52.033100 -1.412200 -2.630563 3.030495 1.707714 -50.721642 12.008739 -55.806704 -15.169685 24.963907 -4.617180 1.409466 2.079143 -14.291625 -23.977752 -2.383229 2.008900 7.125000 0.000000 0.000000 0.629800 -34.585900 0.161000 
-7.191360 20.142764 3.834362 34.232575 -85.752567 -30.649695 -5.097280 5.046706 3.646445 -14.442407 -12.075326 -12.440631 1.292624 7.278731 20.725247 -3.586052 26.788491 27.610827 0.654100 5.173100 14.402900 -1.162076 -5.599502 2.424491 17.655566 21.105271 -4.088549 -3.298280 -7.996912 26.181957 7.772143 -30.999206 14.247369 -0.952800 -6.216200 17.412900 0.275440 1.998258 5.711608 -5.944286 1.540217 -4.549323 -2.128427 1.364026 -9.970599 -9.001563 -2.531390 -11.398927 8.937722 -2.618855 -26.259252 4.060000 -1.883500 -4.972400 1.542050 -2.835133 0.435994 77.669742 -27.583639 -85.416521 10.729426 -20.136581 -2.093796 -0.781038 -1.599249 8.109045 18.588724 22.532760 8.111600 -7.125000 0.000000 0.000000 -10.964000 55.124200 -2.749900 -2.728407 2.971079 1.711819 -51.132980 11.626450 -56.227348 -14.763499 24.484237 -4.406085 1.420585 2.035319 -14.113081 -23.619575 -1.992253 1.771300 7.125000 0.000000 0.000000 0.913900 -34.093800 0.244600 
-7.140057 20.252753 3.822799 43.718365 -85.366278 -39.465440 -5.152102 5.019872 3.500055 -15.034498 -12.435223 -12.583045 1.267175 7.131006 20.096667 -3.400358 27.940452 29.352369 0.655800 5.179600 14.421400 -1.015490 -5.603788 2.424270 16.106456 21.381492 -5.660595 -3.518686 -8.336179 26.834845 7.575594 -31.562231 16.106902 -1.088900 -6.631800 18.629000 -0.615654 2.075951 5.836829 -6.509632 1.430259 -4.822913 -1.705093 1.377970 -10.162524 -9.087966 -2.638595 -11.991468 9.332908 -2.687689 -26.107127 4.172100 -1.937300 -4.867900 1.702089 -2.825036 0.461785 79.618791 -27.068088 -89.901723 9.689484 -18.573481 -1.714174 -0.805522 -1.647526 10.212887 17.634024 24.555478 8.270000 -7.125000 0.000000 0.000000 -13.032400 57.009800 -3.880000 -2.808840 2.904071 1.709966 -51.538585 11.380630 -57.037995 -14.457175 24.129671 -4.251515 1.421276 2.023046 -14.043105 -23.339840 -1.914520 1.706500 7.125000 0.000000 0.000000 1.144200 -33.984200 0.309200 
